<svg width="16" height="19" viewBox="0 0 16 19" fill="none" xmlns="http://www.w3.org/2000/svg">
<path d="M13.3627 10.0941C13.3903 12.9694 15.9714 13.9262 16 13.9384C15.9782 14.0059 15.5876 15.302 14.6402 16.6408C13.8212 17.7982 12.9711 18.9514 11.6321 18.9753C10.3164 18.9987 9.8933 18.2209 8.38904 18.2209C6.88524 18.2209 6.41518 18.9514 5.16969 18.9987C3.87719 19.046 2.89296 17.7471 2.06715 16.5939C0.379706 14.235 -0.909851 9.92824 0.821698 7.02108C1.68189 5.57737 3.21913 4.66316 4.88766 4.63971C6.15687 4.6163 7.35485 5.46535 8.13073 5.46535C8.90612 5.46535 10.3619 4.4443 11.8924 4.59425C12.533 4.62004 14.3315 4.84449 15.4863 6.47893C15.3932 6.53471 13.3404 7.69025 13.3627 10.0941V10.0941ZM10.8899 3.03363C11.5761 2.23049 12.038 1.11245 11.912 0C10.9229 0.0384381 9.72684 0.637309 9.01738 1.44001C8.38157 2.15083 7.82474 3.28856 7.97498 4.37899C9.07745 4.46146 10.2037 3.83729 10.8899 3.03364" fill="black"/>
</svg>
