<svg width="16" height="16" viewBox="0 0 16 16" fill="none" xmlns="http://www.w3.org/2000/svg">
<path d="M3.54594 9.66882L2.989 11.7479L0.953407 11.791C0.345063 10.6627 0 9.3717 0 7.99984C0 6.67325 0.322625 5.42226 0.894501 4.32074H0.894938L2.70719 4.65299L3.50106 6.45435C3.33491 6.93875 3.24435 7.45875 3.24435 7.99984C3.24441 8.58708 3.35078 9.14973 3.54594 9.66882Z" fill="#FBBB00"/>
<path d="M15.8601 6.50546C15.952 6.9894 15.9999 7.48917 15.9999 7.99995C15.9999 8.5727 15.9397 9.13138 15.825 9.67028C15.4355 11.5041 14.4179 13.1054 13.0083 14.2386L13.0078 14.2382L10.7252 14.1217L10.4022 12.105C11.3375 11.5564 12.0685 10.698 12.4536 9.67028H8.17578V6.50546H12.516H15.8601Z" fill="#518EF8"/>
<path d="M13.0076 14.2382L13.0081 14.2387C11.6371 15.3406 9.89554 16 7.99972 16C4.95313 16 2.30434 14.2971 0.953125 11.7912L3.54566 9.66904C4.22125 11.4721 5.9606 12.7556 7.99972 12.7556C8.87619 12.7556 9.69732 12.5187 10.4019 12.105L13.0076 14.2382Z" fill="#28B446"/>
<path d="M13.1064 1.84174L10.5148 3.96347C9.78554 3.50766 8.92354 3.24435 8.00004 3.24435C5.91475 3.24435 4.14288 4.58675 3.50113 6.45445L0.894969 4.32084H0.894531C2.22597 1.75383 4.90816 0 8.00004 0C9.94113 0 11.7209 0.691432 13.1064 1.84174Z" fill="#F14336"/>
</svg>
