<svg xmlns="http://www.w3.org/2000/svg" width="329" height="131" viewBox="0 0 329 131" fill="none"><style>.a{fill:#215E99;}.b{fill:#FFF7ED;}</style><path d="M112.5 101.3C132.7 93.6 142.8 70.9 135 50.7 127.2 30.6 104.5 20.5 84.4 28.3 64.2 36.1 54.1 58.7 61.9 78.9 69.7 99.1 92.4 109.1 112.5 101.3Z" class="a"/><path d="M296.6 89.1C309.3 71.6 305.5 47.1 288 34.4 270.5 21.7 246 25.6 233.3 43.1 220.6 60.5 224.5 85 241.9 97.7 259.4 110.4 283.9 106.6 296.6 89.1Z" class="a"/><path d="M265.3 26.9L98.7 25.7 98.2 104 264.7 105.2 265.3 26.9Z" class="a"/><path d="M97 75C102.8 54.1 90.6 32.6 69.7 26.8 48.9 21.1 27.3 33.3 21.6 54.1 15.8 75 28 96.5 48.9 102.3 69.7 108 91.3 95.8 97 75Z" fill="#EC552F"/><path d="M112 54.5L112 58.1C113.2 55.4 115.3 54 118.4 54.1 121 54.1 123.1 55.1 124.5 57 126 58.9 126.7 61.8 126.6 65.7 126.6 69.5 125.8 72.4 124.2 74.3 122.6 76.1 120.2 77 117 77 115.6 76.9 114.4 76.7 113.7 76.4 113 76 112.4 75.5 111.9 74.7L111.8 86.7 117.8 86.7 117.8 87.5 100.7 87.4 100.7 86.6 103.3 86.6 103.5 55.3 101 55.3 101 54.4 112 54.5ZM117.3 57.7C117 56.6 116.4 56.1 115.6 56 114.7 56 113.9 56.6 113.2 57.7 112.5 58.9 112.1 60.4 112.1 62.3L112 70.8C112 72.1 112.2 73.3 112.7 74.2 113.2 75.1 114 75.6 115 75.6 116 75.6 116.8 74.9 117.1 73.6 117.5 72.3 117.7 69.9 117.7 66.5L117.8 64.1C117.8 60.9 117.6 58.8 117.3 57.7Z" class="b"/><path d="M130.1 74.1C128.2 72.1 127.2 69.3 127.2 65.6 127.2 62 128.3 59.1 130.4 57.1 132.6 55.2 135.6 54.2 139.4 54.2 143.2 54.2 146.1 55.2 147.9 57 149.8 58.9 150.7 61.7 150.7 65.4 150.6 73.3 146.7 77.2 138.8 77.1 135 77.1 132.1 76.1 130.1 74.1ZM141.8 67.6L141.8 63.6C141.8 60.7 141.6 58.5 141.4 57.1 141 55.7 140.3 55 139.1 55 138.5 55 137.9 55.2 137.5 55.6 137.1 56 136.8 56.6 136.6 57.5 136.3 58.9 136.2 61 136.2 63.9L136.2 67.5C136.1 70.8 136.2 72.8 136.4 73.5 136.7 74.2 136.8 74.8 137.1 75.2 137.4 75.9 138.1 76.3 139 76.3 140.2 76.3 141 75.6 141.4 74.2 141.6 73.2 141.7 71 141.8 67.6Z" class="b"/><path d="M151.7 77.2L151.8 68.9 152.4 69C153.2 71.7 154.2 73.5 155.6 74.6 156.9 75.7 158.6 76.3 160.6 76.3 163.8 76.3 165.3 75.3 165.4 73.3 165.4 72.4 165 71.8 164.2 71.4 163 70.7 161.5 70.1 159.7 69.7 157.6 69.2 155.8 68.4 154.4 67.5 152.7 66.4 151.9 64.6 151.9 62.2 151.9 59.8 152.7 57.9 154.2 56.5 155.6 55 157.6 54.3 160.1 54.4 161.6 54.4 163.1 54.8 164.8 55.5 165.3 55.7 165.8 55.8 166.1 55.8 166.4 55.8 166.6 55.7 166.8 55.5 167.1 55.3 167.3 54.9 167.7 54.3L168.2 54.3 168.1 61.4 167.6 61.4C166 57.3 163.6 55.3 160.3 55.3 158.8 55.3 157.8 55.6 157.1 56.1 156.4 56.5 156 57.2 156 57.9 156 58.4 156.1 58.8 156.3 59 156.5 59.3 156.7 59.5 156.8 59.6 157 59.8 157.2 59.9 157.4 60 157.7 60.2 157.9 60.2 158.1 60.3 158.3 60.4 158.6 60.5 158.9 60.6 159.3 60.8 159.6 60.8 159.8 60.8 161.9 61.4 163.4 61.8 164.3 62.2 165.2 62.6 166.1 63.1 166.9 63.6 168.6 64.8 169.5 66.7 169.4 69.3 169.4 71.9 168.7 73.9 167.1 75.2 165.5 76.5 163.4 77.2 160.8 77.1 158.8 77.1 157 76.7 155.2 75.8 154.9 75.5 154.6 75.4 154.3 75.4 153.7 75.4 153 76 152.4 77.1L151.7 77.2Z" class="b"/><path d="M169.6 54.9L180.9 55 180.7 76.2 183.3 76.2 183.3 77 169.6 76.9 169.6 76.1 172.1 76.1 172.3 55.7 169.6 55.7 169.6 54.9ZM176.6 51.8C175 51.8 173.8 51.3 173.1 50.5 172.4 49.7 172.1 48.6 172.1 47.4 172.1 46.2 172.5 45.2 173.2 44.4 174 43.6 175.1 43.2 176.7 43.2 178.2 43.2 179.4 43.6 180.2 44.3 181 45 181.4 46 181.4 47.4 181.4 48.8 181 49.8 180.2 50.6 179.4 51.4 178.2 51.8 176.6 51.8Z" class="b"/><path d="M185.4 70.4L185.5 55.9 183 55.9 183 55 185.6 55 185.6 49.1 194.2 47 194.1 55.1 200.2 55.1 200.1 56 194.1 55.9 194 71.5C194 73 194.2 74 194.4 74.7 194.7 75.4 195.3 75.7 196.3 75.7 197.2 75.7 198 75.3 198.7 74.3 199.4 73.4 199.9 72.1 200.1 70.5L200.9 70.6C200.6 72.8 199.9 74.4 198.8 75.7 197.7 76.9 195.9 77.5 193.3 77.5 190.7 77.5 188.8 76.9 187.5 75.9 186.1 75 185.4 73.1 185.4 70.4Z" class="b"/><path d="M200.1 55.1L211.4 55.2 211.3 76.4 213.8 76.4 213.8 77.3 200.1 77.1 200.1 76.3 202.7 76.3 202.8 56 200.1 55.9 200.1 55.1ZM207.1 52C205.5 52 204.3 51.5 203.6 50.7 202.9 49.9 202.6 48.8 202.6 47.6 202.6 46.4 202.9 45.4 203.7 44.6 204.5 43.8 205.6 43.4 207.2 43.4 208.7 43.4 209.9 43.8 210.7 44.5 211.5 45.2 211.9 46.3 211.9 47.6 211.9 49 211.5 50 210.7 50.8 209.9 51.6 208.7 52 207.1 52Z" class="b"/><path d="M211.9 56L211.9 55.2 225.7 55.3 225.7 56.1 222.8 56.1 228.2 71.5 233.3 56.3 230.2 56.2 230.2 55.4 236.4 55.4 236.4 56.3 234.4 56.3 227.4 77.4 222.1 77.3 213.7 56.1 211.9 56Z" class="b"/><path d="M235.6 55.4L246.9 55.5 246.8 76.7 249.3 76.7 249.3 77.5 235.6 77.4 235.6 76.6 238.2 76.6 238.3 56.2 235.6 56.2 235.6 55.4ZM242.6 52.3C241 52.3 239.8 51.8 239.1 51 238.4 50.2 238.1 49.1 238.1 47.9 238.1 46.7 238.5 45.7 239.3 44.9 240 44.1 241.2 43.7 242.7 43.7 244.2 43.7 245.5 44.1 246.2 44.8 247 45.5 247.4 46.5 247.4 47.9 247.4 49.3 247 50.3 246.3 51.1 245.4 51.9 244.2 52.3 242.6 52.3Z" class="b"/><path d="M251.5 70.9L251.6 56.4 249 56.4 249 55.5 251.6 55.5 251.7 49.6 260.3 47.5 260.2 55.6 266.2 55.7 266.2 56.5 260.2 56.5 260.1 72.1C260 73.5 260.2 74.5 260.5 75.2 260.7 75.9 261.4 76.2 262.3 76.3 263.2 76.3 264.1 75.8 264.7 74.9 265.4 74 265.9 72.7 266.1 71.1L266.9 71.2C266.7 73.3 266 75 264.9 76.2 263.7 77.4 261.9 78 259.3 78 256.8 78 254.8 77.5 253.5 76.4 252.1 75.4 251.5 73.6 251.5 70.9Z" class="b"/><path d="M269.4 75C267.5 73 266.5 70.1 266.5 66.4 266.5 62.8 267.7 60 269.9 58.1 272.2 56.2 275 55.2 278.4 55.2 285.4 55.2 288.8 58.8 288.4 65.8L275.4 65.7 275.4 67.5C275.3 70.5 275.7 72.8 276.5 74.3 277.2 75.9 278.5 76.7 280.5 76.7 284 76.7 286.4 74.8 287.5 71L288.3 71.1C287.7 73.4 286.7 75.1 285.1 76.3 283.6 77.5 281.3 78.1 278.3 78.1 274.3 78.2 271.4 77.1 269.4 75ZM275.4 64.8L280.2 64.9 280.2 62.6C280.2 60.1 280 58.4 279.8 57.5 279.5 56.6 279 56.1 278.1 56.1 277.2 56.1 276.5 56.6 276.1 57.6 275.7 58.5 275.5 60.2 275.4 62.6L275.4 64.8Z" class="b"/><path d="M44.3 44.3L44.2 60.4C45.4 57.8 47.4 56.5 50.2 56.5 56 56.6 58.9 60.4 58.8 68.1 58.8 72 58 74.8 56.4 76.7 54.8 78.5 52.4 79.4 49.2 79.4 47.6 79.4 46.4 79.1 45.6 78.6 44.7 78.1 44.1 77.3 43.9 76.2L43.5 78.9 33 78.8 33 78 35.6 78 35.8 45 33.3 45 33.3 44.2 44.3 44.3ZM49.5 60.1C49.2 59 48.6 58.5 47.7 58.5 46.8 58.5 46 59 45.3 60.1 44.6 61.2 44.2 62.8 44.2 64.7L44.1 73.3C44.1 74.6 44.4 75.7 44.9 76.6 45.4 77.5 46.2 78 47.2 78 48.2 78 48.9 77.4 49.3 76 49.7 74.7 49.9 72.3 49.9 68.9L50 66.5C49.9 63.4 49.8 61.2 49.5 60.1Z" class="a"/><path d="M62.2 76.5C60.2 74.4 59.3 71.5 59.3 67.9 59.3 64.2 60.4 61.4 62.7 59.5 64.9 57.6 67.8 56.6 71.2 56.6 78.2 56.7 81.5 60.2 81.2 67.2L68.2 67.2 68.1 68.9C68.1 72 68.5 74.3 69.2 75.8 70 77.3 71.3 78.1 73.2 78.1 76.7 78.1 79.1 76.2 80.2 72.5L81 72.6C80.5 74.8 79.4 76.5 77.8 77.7 76.3 79 74 79.5 71 79.6 67.1 79.6 64.2 78.5 62.2 76.5ZM68.2 66.3L73 66.3 73 64.1C73 61.6 72.9 59.9 72.6 59 72.3 58.1 71.8 57.6 70.9 57.6 70 57.6 69.3 58 68.9 59 68.5 60 68.3 61.7 68.3 64.1L68.2 66.3Z" class="a"/></svg>