<svg xmlns="http://www.w3.org/2000/svg" width="330" height="213" viewBox="0 0 330 213" fill="none"><style>.a{fill:#215E99;}.b{fill:#EC552F;}.c{fill:#FFF7ED;}</style><path d="M113.5 101.4C133.6 93.6 143.7 71 135.9 50.8 128.1 30.6 105.5 20.6 85.3 28.3 65.1 36.1 55.1 58.8 62.8 78.9 70.6 99.1 93.3 109.2 113.5 101.4Z" class="a"/><path d="M297.5 89.1C310.3 71.6 306.4 47.1 288.9 34.4 271.4 21.7 246.9 25.6 234.2 43.1 221.5 60.6 225.4 85.1 242.9 97.8 260.4 110.5 284.8 106.6 297.5 89.1Z" class="a"/><path d="M266.2 27L99.7 25.7 99.1 104 265.6 105.3 266.2 27Z" class="a"/><path d="M98 75C103.7 54.2 91.5 32.6 70.6 26.9 49.8 21.1 28.2 33.3 22.5 54.2 16.7 75 29 96.6 49.8 102.3 70.7 108.1 92.2 95.8 98 75Z" class="b"/><path d="M112.9 54.5L112.9 58.2C114.1 55.4 116.3 54.1 119.3 54.1 122 54.1 124 55.1 125.4 57 126.9 58.9 127.6 61.8 127.6 65.7 127.5 69.6 126.7 72.4 125.1 74.3 123.5 76.1 121.1 77 118 77 116.5 77 115.4 76.8 114.6 76.4 113.9 76.1 113.3 75.5 112.9 74.7L112.8 86.7 118.7 86.8 118.7 87.6 101.6 87.5 101.6 86.6 104.2 86.7 104.4 55.3 101.9 55.3 102 54.5 112.9 54.5ZM118.3 57.7C118 56.6 117.4 56.1 116.5 56.1 115.6 56.1 114.8 56.7 114.1 57.8 113.4 58.9 113 60.5 113 62.4L112.9 70.9C112.9 72.2 113.1 73.3 113.7 74.2 114.2 75.2 114.9 75.7 116 75.7 117 75.7 117.7 75 118.1 73.7 118.4 72.3 118.6 69.9 118.7 66.6L118.7 64.2C118.7 61 118.5 58.9 118.3 57.7Z" class="c"/><path d="M131 74.2C129.1 72.2 128.1 69.3 128.1 65.7 128.2 62 129.2 59.2 131.4 57.2 133.5 55.2 136.5 54.2 140.3 54.3 144.1 54.3 147 55.2 148.9 57.1 150.7 58.9 151.6 61.7 151.6 65.5 151.5 73.3 147.6 77.2 139.8 77.2 135.9 77.1 133 76.1 131 74.2ZM142.7 67.6L142.7 63.7C142.7 60.7 142.6 58.5 142.3 57.1 142 55.8 141.2 55 140.1 55.1 139.4 55.1 138.9 55.3 138.4 55.6 138 56 137.7 56.6 137.5 57.6 137.2 59 137.1 61.1 137.1 63.9L137.1 67.5C137 70.9 137.1 72.9 137.4 73.6 137.6 74.3 137.8 74.8 138 75.2 138.3 76 139 76.3 139.9 76.3 141.1 76.4 141.9 75.7 142.3 74.3 142.5 73.3 142.7 71.1 142.7 67.6Z" class="c"/><path d="M152.7 77.3L152.7 69 153.3 69C154.1 71.7 155.1 73.6 156.5 74.7 157.8 75.8 159.5 76.3 161.6 76.3 164.7 76.3 166.3 75.4 166.3 73.4 166.3 72.5 165.9 71.9 165.2 71.4 164 70.7 162.4 70.2 160.6 69.8 158.5 69.2 156.8 68.5 155.3 67.5 153.6 66.4 152.8 64.6 152.8 62.2 152.8 59.8 153.6 57.9 155.1 56.5 156.6 55.1 158.6 54.4 161 54.4 162.5 54.4 164.1 54.8 165.7 55.5 166.2 55.8 166.7 55.9 167 55.9 167.3 55.9 167.5 55.8 167.8 55.5 168 55.3 168.3 54.9 168.6 54.4L169.1 54.4 169.1 61.4 168.5 61.4C167 57.4 164.5 55.4 161.2 55.4 159.8 55.4 158.7 55.6 158 56.1 157.3 56.6 156.9 57.3 156.9 58 157 58.5 157 58.8 157.3 59.1 157.5 59.4 157.6 59.5 157.8 59.7 157.9 59.8 158.1 59.9 158.4 60.1 158.6 60.2 158.9 60.3 159 60.4 159.2 60.5 159.5 60.6 159.9 60.7 160.3 60.8 160.5 60.9 160.7 60.9 162.8 61.4 164.3 61.9 165.2 62.3 166.1 62.6 167 63.1 167.9 63.7 169.6 64.9 170.4 66.8 170.4 69.3 170.4 71.9 169.6 73.9 168 75.2 166.5 76.6 164.4 77.2 161.7 77.2 159.8 77.2 158 76.7 156.2 75.8 155.8 75.6 155.5 75.4 155.3 75.4 154.6 75.4 153.9 76 153.3 77.1L152.7 77.3Z" class="c"/><path d="M170.5 55L181.8 55 181.6 76.2 184.2 76.2 184.2 77.1 170.5 76.9 170.5 76.1 173.1 76.1 173.2 55.8 170.5 55.7 170.5 55ZM177.5 51.8C175.9 51.8 174.7 51.4 174 50.5 173.3 49.7 173 48.7 173 47.5 173 46.2 173.4 45.2 174.2 44.4 174.9 43.6 176.1 43.2 177.6 43.2 179.1 43.2 180.3 43.6 181.1 44.3 181.9 45 182.3 46.1 182.3 47.4 182.3 48.8 181.9 49.9 181.1 50.7 180.3 51.5 179.1 51.8 177.5 51.8Z" class="c"/><path d="M186.4 70.5L186.5 55.9 183.9 55.9 183.9 55.1 186.5 55.1 186.5 49.1 195.2 47.1 195.1 55.1 201.1 55.2 201.1 56 195 56 195 71.6C194.9 73 195.1 74 195.4 74.7 195.6 75.4 196.2 75.7 197.2 75.7 198.1 75.7 198.9 75.3 199.6 74.4 200.3 73.5 200.8 72.2 201 70.6L201.8 70.7C201.6 72.8 200.8 74.5 199.7 75.7 198.6 76.9 196.8 77.5 194.2 77.5 191.7 77.5 189.7 77 188.4 75.9 187 75 186.3 73.1 186.4 70.5Z" class="c"/><path d="M201 55.2L212.3 55.3 212.2 76.4 214.7 76.5 214.7 77.3 201 77.2 201 76.3 203.6 76.3 203.7 56 201 56 201 55.2ZM208 52C206.4 52 205.2 51.6 204.5 50.8 203.8 49.9 203.5 48.9 203.5 47.7 203.5 46.4 203.9 45.4 204.6 44.6 205.4 43.8 206.5 43.5 208.1 43.5 209.6 43.5 210.8 43.9 211.6 44.6 212.4 45.3 212.8 46.3 212.8 47.7 212.8 49 212.4 50.1 211.6 50.9 210.9 51.7 209.7 52 208 52Z" class="c"/><path d="M212.8 56.1L212.8 55.2 226.6 55.4 226.6 56.2 223.7 56.2 229.1 71.6 234.2 56.3 231.1 56.3 231.1 55.4 237.4 55.5 237.3 56.3 235.3 56.3 228.3 77.4 223 77.4 214.7 56.2 212.8 56.1Z" class="c"/><path d="M236.5 55.5L247.8 55.6 247.7 76.7 250.2 76.7 250.2 77.6 236.5 77.4 236.5 76.6 239.1 76.6 239.2 56.3 236.5 56.2 236.5 55.5ZM243.6 52.3C241.9 52.3 240.8 51.9 240.1 51 239.4 50.2 239 49.2 239.1 48 239.1 46.7 239.4 45.7 240.2 44.9 240.9 44.1 242.1 43.7 243.7 43.7 245.2 43.8 246.4 44.1 247.2 44.8 248 45.6 248.3 46.6 248.3 48 248.3 49.3 247.9 50.4 247.2 51.2 246.4 51.9 245.2 52.3 243.6 52.3Z" class="c"/><path d="M252.4 71L252.5 56.4 249.9 56.4 250 55.6 252.5 55.6 252.6 49.6 261.2 47.6 261.1 55.7 267.1 55.7 267.1 56.6 261.1 56.5 261 72.1C261 73.6 261.1 74.6 261.4 75.3 261.7 76 262.3 76.3 263.2 76.3 264.2 76.3 265 75.9 265.7 74.9 266.4 74 266.8 72.7 267.1 71.1L267.9 71.2C267.6 73.4 266.9 75 265.8 76.3 264.7 77.5 262.8 78.1 260.3 78.1 257.7 78.1 255.7 77.5 254.4 76.5 253.1 75.5 252.4 73.6 252.4 71Z" class="c"/><path d="M270.3 75.1C268.4 73 267.4 70.2 267.4 66.5 267.5 62.8 268.6 60 270.8 58.1 273.1 56.2 275.9 55.2 279.4 55.3 286.4 55.3 289.7 58.8 289.3 65.8L276.3 65.8 276.3 67.5C276.3 70.6 276.7 72.9 277.4 74.4 278.2 75.9 279.5 76.7 281.4 76.7 285 76.7 287.3 74.8 288.5 71L289.3 71.2C288.7 73.4 287.6 75.1 286.1 76.3 284.5 77.6 282.2 78.1 279.2 78.2 275.3 78.2 272.3 77.2 270.3 75.1ZM276.3 64.9L281.1 64.9 281.1 62.7C281.1 60.1 281 58.4 280.7 57.5 280.4 56.7 279.9 56.2 279 56.2 278.1 56.1 277.4 56.6 277 57.6 276.6 58.6 276.4 60.3 276.4 62.6L276.3 64.9Z" class="c"/><path d="M45.3 44.3L45.2 60.5C46.4 57.9 48.4 56.5 51.2 56.6 56.9 56.6 59.8 60.5 59.7 68.1 59.7 72 58.9 74.9 57.3 76.7 55.7 78.6 53.3 79.5 50.2 79.4 48.5 79.4 47.3 79.2 46.5 78.7 45.6 78.2 45.1 77.3 44.8 76.2L44.4 78.9 33.9 78.9 33.9 78 36.5 78.1 36.8 45.1 34.2 45.1 34.2 44.2 45.3 44.3ZM50.4 60.2C50.1 59.1 49.5 58.6 48.6 58.5 47.7 58.5 46.9 59.1 46.2 60.2 45.5 61.3 45.1 62.8 45.1 64.7L45.1 73.3C45.1 74.6 45.3 75.8 45.8 76.7 46.4 77.6 47.2 78.1 48.2 78.1 49.2 78.1 49.8 77.4 50.2 76.1 50.6 74.7 50.8 72.3 50.8 69L50.9 66.6C50.9 63.5 50.7 61.3 50.4 60.2Z" class="a"/><path d="M63.1 76.5C61.2 74.5 60.2 71.6 60.2 67.9 60.2 64.3 61.4 61.5 63.6 59.6 65.9 57.6 68.7 56.7 72.1 56.7 79.1 56.7 82.5 60.3 82.1 67.3L69.1 67.2 69.1 69C69 72 69.4 74.3 70.1 75.8 70.9 77.4 72.2 78.1 74.1 78.2 77.7 78.2 80 76.3 81.2 72.5L82 72.6C81.4 74.9 80.3 76.6 78.8 77.8 77.2 79 74.9 79.6 71.9 79.6 68 79.6 65.1 78.6 63.1 76.5ZM69.2 66.4L73.9 66.4 73.9 64.1C74 61.6 73.8 59.9 73.5 59 73.3 58.1 72.7 57.6 71.8 57.6 70.9 57.6 70.3 58.1 69.9 59.1 69.4 60 69.2 61.7 69.2 64.1L69.2 66.4Z" class="a"/><path d="M50.9 116.8L72.3 125.9 85.8 112.5 97 126.7 117.4 117.4 114.8 140.3 133.5 154.6 114.6 161.8 118.7 180.1 99.9 180.3 93.5 197.4 75.9 191.6 62.4 206.3 51.6 193.3 30.3 199.4 34.4 179.9 18.6 171.1 31.2 158.9 20.7 141.3 45.5 137.5 50.9 116.8Z" class="b"/><path d="M47.1 161.4C48.6 158.8 50.8 156.7 53.5 155.5 56 154.2 58.9 153.7 61.7 154.1 63.3 154.3 64.8 154.8 66.3 155.5 66.8 155.8 67.6 155.3 67.8 154.8 68 154.1 67.7 153.6 67.1 153.3 61.2 150.4 53.9 151.4 48.8 155.7 47.4 156.9 46.1 158.4 45.2 160 44.8 160.6 44.9 161.3 45.5 161.7 46 162 46.8 161.9 47.1 161.4Z" class="c"/><path d="M49.3 174C57.2 175.1 65.4 175.1 73.2 173.2 80.9 171.2 88 167.5 94.1 162.5 97.9 159.3 101.4 155.7 104.4 151.9 105 151.2 104.5 150 103.6 150.1 103 150.1 102.4 150.1 101.7 150.1 101.1 150.1 100.5 150.5 100.4 151.2 100.4 151.7 100.8 152.5 101.5 152.4 102.1 152.4 102.8 152.4 103.4 152.4 103.1 151.8 102.8 151.2 102.5 150.6 97.5 156.9 91.4 162.5 84.2 166.4 77.7 170 70.4 171.9 63 172.3 58.5 172.6 54 172.3 49.6 171.7 48.9 171.6 48.3 172.2 48.3 172.8 48.2 173.4 48.7 173.9 49.3 174Z" class="c"/><path d="M78 150.8C81.4 145.9 86.7 142.7 92.7 142.6 94.4 142.6 96.2 142.8 97.8 143.2 98.5 143.3 99.1 143.1 99.4 142.4 99.6 141.9 99.3 141.1 98.7 140.9 95.4 140.2 92 140 88.7 140.8 85.5 141.5 82.5 143 80 145.2 78.5 146.4 77.2 147.9 76.2 149.5 75.2 150.7 77.2 152 78 150.8Z" class="c"/><path d="M70.4 148.2C70.7 153.2 70.5 158.4 69.8 163.4 69.6 164.2 70.6 165 71.4 164.6 75 162.7 78.5 160.9 82.1 159.1 82.7 158.8 82.9 158.1 82.7 157.5 82.4 157 81.7 156.7 81.1 157 77.5 158.8 74 160.6 70.5 162.4 71 162.8 71.5 163.2 72.1 163.6 72.9 158.4 73.1 153 72.7 147.8 72.7 147.1 71.9 146.7 71.3 146.8 70.6 146.9 70.3 147.6 70.4 148.2Z" class="c"/></svg>
 