<svg xmlns="http://www.w3.org/2000/svg" width="99" height="83" viewBox="0 0 99 83" fill="none"><style>.a{fill:#FFF7ED;}</style><path d="M30.7 9.1L47.1 16 57.5 5.8 66.1 16.7 81.8 9.5 79.7 27.1 94.2 38.1 79.6 43.7 82.8 57.7 68.3 57.9 63.4 71 49.8 66.5 39.5 77.9 31.2 67.9 14.9 72.6 18 57.6 5.8 50.8 15.5 41.4 7.5 27.9 26.5 25 30.7 9.1Z" fill="#EC552F"/><path d="M27.8 43.3C28.9 41.4 30.6 39.8 32.6 38.8 34.6 37.8 36.8 37.5 39 37.8 40.2 37.9 41.4 38.3 42.5 38.8 42.9 39 43.5 38.7 43.6 38.3 43.8 37.7 43.5 37.3 43.1 37.1 38.6 34.9 33 35.7 29.1 39 28 39.9 27 41 26.3 42.3 26 42.7 26.1 43.3 26.5 43.5 26.9 43.8 27.5 43.8 27.8 43.3Z" class="a"/><path d="M29.4 53C35.5 53.9 41.8 53.9 47.8 52.4 53.7 50.9 59.2 48.1 63.9 44.2 66.8 41.8 69.4 39 71.8 36 72.2 35.5 71.8 34.6 71.2 34.6 70.7 34.6 70.2 34.6 69.7 34.7 69.2 34.7 68.8 35 68.7 35.5 68.7 35.9 69 36.5 69.6 36.5 70 36.4 70.5 36.4 71 36.4 70.8 35.9 70.6 35.5 70.3 35 66.5 39.9 61.8 44.2 56.3 47.2 51.2 49.9 45.6 51.4 39.9 51.7 36.5 51.9 33 51.7 29.7 51.3 29.2 51.2 28.7 51.6 28.7 52.1 28.6 52.6 28.9 53 29.4 53Z" class="a"/><path d="M51.5 35.2C54.1 31.5 58.2 29 62.8 28.9 64.1 28.9 65.5 29 66.7 29.3 67.2 29.4 67.7 29.3 67.9 28.8 68.1 28.3 67.9 27.7 67.4 27.6 64.9 27 62.2 26.9 59.7 27.5 57.2 28.1 54.9 29.2 53 30.9 51.9 31.8 50.9 33 50.1 34.2 49.4 35.1 50.8 36.2 51.5 35.2Z" class="a"/><path d="M45.6 33.2C45.9 37.1 45.7 41 45.2 44.9 45 45.5 45.8 46.1 46.5 45.8 49.2 44.4 51.9 43 54.6 41.6 55.1 41.3 55.3 40.8 55.1 40.4 54.9 39.9 54.3 39.7 53.9 39.9 51.1 41.3 48.4 42.7 45.7 44.1 46.1 44.5 46.5 44.7 47 45 47.6 41 47.7 36.9 47.4 32.9 47.4 32.4 46.8 32.1 46.4 32.2 45.8 32.2 45.6 32.7 45.6 33.2Z" class="a"/></svg>
 
